<svg xmlns="http://www.w3.org/2000/svg" width="64" height="12" viewBox="0 0 64 12">
    <g fill="none" fill-rule="evenodd">
        <g>
            <ellipse cx="6.154" cy="6" fill="#E2574C" rx="6.154" ry="6"/>
            <ellipse cx="13.846" cy="6" fill="#F4B459" rx="6.154" ry="6"/>
            <path fill="#FF5F00" d="M12.308 6c0 1.894-.901 3.583-2.308 4.683-1.407-1.1-2.308-2.789-2.308-4.684 0-1.894.901-3.584 2.308-4.683 1.407 1.1 2.308 2.789 2.308 4.683z"/>
        </g>
        <path fill="#2394BC" d="M41.764.6h2.998l-1.875 10.699H39.89l1.874-10.7zM37.377.61L40.552.61l-4.72 10.68-3.171.005-2.684-8.923c1.93 1.201 3.573 3.108 4.152 4.435l.313 1.102L37.377.611zm13.46 2.04c-1.174 0-1.718.475-1.718.92-.006.5.635.83 1.684 1.327 1.732.762 2.531 1.69 2.518 2.905-.022 2.222-2.069 3.656-5.22 3.656-1.343-.013-2.637-.27-3.339-.57l.422-2.394.386.17c.985.4 1.622.56 2.822.56.861 0 1.783-.328 1.792-1.044.006-.469-.386-.802-1.554-1.327-1.137-.513-2.644-1.37-2.624-2.908.016-2.08 2.103-3.53 5.065-3.53 1.16 0 2.091.232 2.685.449l-.406 2.319-.27-.124a5.667 5.667 0 0 0-2.244-.41zM61.446.61l2.425 10.694h-2.78s-.276-1.23-.366-1.603l-3.838-.005c-.116.29-.63 1.608-.63 1.608h-3.147l4.45-9.806c.316-.697.851-.888 1.57-.888h2.316zm-3.696 6.897h2.49l-.695-3.09-.202-.922c-.155.402-.415 1.05-.4 1.021 0 0-.946 2.376-1.193 2.99z"/>
        <path fill="#F4B459" d="M32.99 1.377c-.173-.652-.678-.846-1.305-.87H27.04L27 .722c3.616.853 6.009 2.91 7.001 5.383l-1.01-4.727z"/>
    </g>
</svg>
