<svg xmlns="http://www.w3.org/2000/svg" width="110" height="36" viewBox="0 0 110 36">
    <g fill="none" fill-rule="evenodd">
        <path fill="#323232" d="M110 31.135A4.864 4.864 0 0 1 105.14 36H4.863A4.864 4.864 0 0 1 0 31.135V4.865A4.864 4.864 0 0 1 4.863 0h100.276A4.863 4.863 0 0 1 110 4.865v26.27z"/>
        <path fill="#FFF" d="M28.646 24.56c-.595 1.328-.88 1.921-1.646 3.095-1.07 1.638-2.576 3.679-4.442 3.696-1.66.015-2.085-1.087-4.336-1.075-2.251.012-2.722 1.094-4.381 1.079-1.867-.018-3.294-1.86-4.363-3.499-2.99-4.581-3.302-9.958-1.459-12.816 1.31-2.032 3.377-3.22 5.32-3.22 1.98 0 3.223 1.092 4.86 1.092 1.586 0 2.553-1.094 4.84-1.094 1.73 0 3.562.948 4.867 2.587-4.277 2.36-3.582 8.511.74 10.155zM21.357 9.862c-.892 1.127-2.428 2-3.912 1.954-.272-1.453.424-2.947 1.267-3.956.93-1.11 2.52-1.961 3.88-2.054.23 1.519-.403 3.004-1.235 4.056zM38.117 17.164c-.148.65-.307 1.264-.474 1.834l-1.1 3.512h3.173l-1.115-3.49c-.193-.659-.344-1.269-.484-1.856zM37.136 15h2.06l4.153 13.161h-1.946l-1.27-4.041H36.13l-1.235 4.041H33L37.136 15zm11.384 4.701c-1.084 0-2.04.774-2.327 1.883l-.028.157c-.03.166-.061.337-.061.478v1.559c0 .245.023.463.068.627a2.342 2.342 0 0 0 2.275 1.798c1.581 0 2.564-1.27 2.564-3.316 0-1.585-.77-3.186-2.491-3.186zm.48-1.604c1.112 0 2.119.466 2.838 1.312.734.865 1.122 2.042 1.122 3.404 0 1.54-.446 2.83-1.292 3.728a3.973 3.973 0 0 1-2.925 1.248c-1.084 0-2.04-.419-2.64-1.138v4.607h-1.93v-9.873a44.06 44.06 0 0 0-.074-2.921l-.01-.163h1.766l.077 1.274c.7-.969 1.754-1.478 3.069-1.478zm9.13 1.604c-1.084 0-2.04.774-2.327 1.883-.008.05-.018.103-.028.155-.03.166-.061.338-.061.48v1.559c0 .245.023.463.068.627a2.342 2.342 0 0 0 2.274 1.798c1.581 0 2.565-1.27 2.565-3.316 0-1.585-.77-3.186-2.49-3.186zm.48-1.604c1.112 0 2.119.466 2.838 1.312.734.865 1.122 2.042 1.122 3.404 0 1.54-.447 2.83-1.29 3.728a3.978 3.978 0 0 1-2.928 1.248c-1.083 0-2.04-.419-2.638-1.138v4.607h-1.93v-9.873c0-1.254-.023-2.127-.075-2.921l-.01-.163h1.765l.077 1.274c.702-.969 1.755-1.478 3.07-1.478zm11.983 2.51c2.178.913 3.066 2.014 3.066 3.8 0 1.732-1.108 3.754-4.232 3.754-1.094 0-2.385-.352-3.071-.838l-.09-.063.488-1.648.157.107c.737.502 1.692.789 2.62.789 1.425 0 2.31-.755 2.31-1.972 0-1.075-.574-1.702-2.116-2.314-2.177-.84-3.19-2.012-3.19-3.69 0-2.08 1.619-3.532 3.936-3.532 1.475 0 2.342.441 2.647.63l.101.064-.513 1.61-.154-.1c-.202-.135-.956-.57-2.133-.57-1.427 0-2.066.861-2.066 1.714 0 1.014.544 1.562 2.24 2.26zm6.092-4.059v2.192h2.148v1.538h-2.148v4.655c0 1.108.294 1.58.985 1.58.372 0 .603-.029.828-.104l.17-.056.086 1.54-.1.038a3.91 3.91 0 0 1-1.376.23c-.714 0-1.326-.26-1.724-.73-.415-.505-.617-1.303-.617-2.442v-4.711H73.66V18.74h1.278V17.14l1.748-.593zm6.593 3.138c-1.75 0-2.533 1.74-2.533 3.463 0 1.984 1.042 3.424 2.478 3.424h.019c1.456 0 2.515-1.465 2.515-3.482 0-1.64-.776-3.405-2.48-3.405zm.055-1.59c1.276 0 2.37.477 3.165 1.377.79.896 1.206 2.127 1.206 3.56 0 3.524-2.331 5.128-4.499 5.128h-.017c-2.564 0-4.355-2.037-4.355-4.955 0-3.008 1.85-5.11 4.5-5.11zm10.285.089v1.771l-.19-.02c-.153-.017-.296-.033-.478-.033-.938 0-1.674.751-1.875 1.913-.032.223-.05.472-.05.735v4.836h-1.781l.016-6.199c0-1.138-.02-1.98-.067-2.732l-.01-.16h1.599l.052 1.328c.466-.943 1.302-1.527 2.234-1.527.158 0 .286.017.443.059l.107.029zm4.204 1.443c-1.433 0-2.125 1.275-2.303 2.437h4.37c-.013-.417-.11-1.285-.66-1.874-.35-.374-.823-.563-1.407-.563zm.128-1.531c2.805 0 3.8 2.451 3.8 4.55 0 .36-.019.636-.057.84l-.025.13-6.184-.02c.118 2.63 2.037 2.918 2.87 2.918 1.184 0 1.878-.228 2.4-.451l.16-.068.368 1.5-.116.054c-.587.279-1.59.611-3.033.611-2.743 0-4.515-1.907-4.515-4.859 0-3.065 1.782-5.205 4.332-5.205z"/>
        <text fill="#FFF" font-family="OpenSans-Regular, Open Sans" font-size="7">
            <tspan x="33" y="12">скачать в</tspan>
        </text>
    </g>
</svg>
