<svg xmlns="http://www.w3.org/2000/svg" width="110" height="36" viewBox="0 0 110 36">
    <defs>
        <linearGradient id="a" x1="60.586%" x2="27.502%" y1="4.969%" y2="71.901%">
            <stop offset="0%" stop-color="#00A0FF"/>
            <stop offset="1%" stop-color="#00A1FF"/>
            <stop offset="26%" stop-color="#00BEFF"/>
            <stop offset="51%" stop-color="#00D2FF"/>
            <stop offset="76%" stop-color="#00DFFF"/>
            <stop offset="100%" stop-color="#00E3FF"/>
        </linearGradient>
        <linearGradient id="b" x1="107.587%" x2="-130.445%" y1="49.967%" y2="49.967%">
            <stop offset="0%" stop-color="#FFE000"/>
            <stop offset="41%" stop-color="#FFBD00"/>
            <stop offset="78%" stop-color="#FFA500"/>
            <stop offset="100%" stop-color="#FF9C00"/>
        </linearGradient>
        <linearGradient id="c" x1="86.246%" x2="-50.128%" y1="30.057%" y2="139.809%">
            <stop offset="0%" stop-color="#FF3A44"/>
            <stop offset="100%" stop-color="#C31162"/>
        </linearGradient>
        <linearGradient id="d" x1="-18.794%" x2="42.098%" y1="-14.594%" y2="34.418%">
            <stop offset="0%" stop-color="#32A071"/>
            <stop offset="7%" stop-color="#2DA771"/>
            <stop offset="48%" stop-color="#15CF74"/>
            <stop offset="80%" stop-color="#06E775"/>
            <stop offset="100%" stop-color="#00F076"/>
        </linearGradient>
    </defs>
    <g fill="none" fill-rule="evenodd">
        <rect width="110" height="36" fill="#323232" rx="4"/>
        <path fill="#FFF" fill-rule="nonzero" d="M52.127 18.307c-1.743.01-3.15 1.355-3.144 3.008.006 1.654 1.423 2.99 3.167 2.987 1.743-.003 3.155-1.344 3.155-2.997a2.876 2.876 0 0 0-.918-2.139 3.206 3.206 0 0 0-2.26-.859zm0 4.822c-.958 0-1.784-.75-1.784-1.808 0-1.059.826-1.808 1.784-1.808.958 0 1.784.737 1.784 1.808 0 1.07-.82 1.8-1.784 1.8v.008zm-6.92-4.822c-1.743.01-3.15 1.355-3.143 3.008.006 1.654 1.423 2.99 3.166 2.987 1.744-.003 3.156-1.344 3.156-2.997.012-.8-.319-1.571-.917-2.136a3.208 3.208 0 0 0-2.255-.862h-.006zm0 4.822c-.957 0-1.783-.75-1.783-1.808 0-1.059.826-1.808 1.784-1.808.957 0 1.784.737 1.784 1.808 0 1.07-.82 1.8-1.778 1.8l-.006.008zm-8.226-3.902V20.5h3.208a2.575 2.575 0 0 1-.731 1.607c-.65.63-1.55.968-2.477.932-1.97 0-3.568-1.514-3.568-3.383 0-1.868 1.597-3.383 3.568-3.383a3.52 3.52 0 0 1 2.417.908l.947-.896a4.815 4.815 0 0 0-3.364-1.283C34.275 15 32 17.09 32 19.655c0 2.566 2.275 4.655 4.98 4.655 1.46 0 2.562-.454 3.425-1.306.862-.852 1.16-2.02 1.16-2.975a3.865 3.865 0 0 0-.071-.794l-4.513-.008zm33.67.987c-.263-.67-1.06-1.907-2.706-1.907s-2.981 1.216-2.981 2.998a2.854 2.854 0 0 0 .896 2.13c.592.565 1.4.878 2.24.867 1.057.006 2.047-.493 2.633-1.328l-1.076-.681a1.83 1.83 0 0 1-1.557.828c-.659.023-1.266-.337-1.532-.908l4.226-1.66-.144-.34zm-4.31 1.004c-.03-.44.127-.874.438-1.203.31-.33.747-.526 1.213-.547.55 0 1.019.262 1.173.637l-2.824 1.113zm-3.436 2.905h1.387V15.31h-1.387v8.813zm-2.276-5.143h-.046a2.254 2.254 0 0 0-1.666-.669c-1.58 0-3.03 1.318-3.03 3.014 0 1.695 1.45 2.985 3.03 2.985a2.213 2.213 0 0 0 1.666-.681h.046v.43c0 1.147-.646 1.76-1.695 1.76-.71-.016-1.339-.438-1.59-1.067l-1.21.476c.465 1.077 1.573 1.778 2.8 1.772 1.63 0 3.007-.908 3.007-3.122v-5.39h-1.318l.006.492zm-1.59 4.145c-.958 0-1.761-.762-1.761-1.808 0-1.047.803-1.828 1.76-1.828.958 0 1.695.771 1.695 1.828 0 1.056-.75 1.804-1.695 1.804v.004zm18.116-7.815h-3.322v8.81h1.387v-3.338h1.935c1.538 0 3.048-1.054 3.048-2.736 0-1.681-1.51-2.736-3.048-2.736zm.036 4.239h-1.97v-3.014h1.97a1.62 1.62 0 0 1 1.476.72c.31.483.31 1.09 0 1.574a1.62 1.62 0 0 1-1.476.72zm8.57-1.266c-1.005 0-2.045.42-2.475 1.348l1.23.488c.266-.488.755-.647 1.272-.647.718 0 1.447.402 1.46 1.133v.093a3.2 3.2 0 0 0-1.447-.342c-1.326 0-2.678.691-2.678 1.985 0 1.177 1.089 1.937 2.307 1.937.71.04 1.389-.29 1.77-.86h.048v.679h1.337v-3.369c-.004-1.565-1.235-2.437-2.824-2.437v-.008zm-.168 4.822c-.453 0-1.087-.215-1.087-.748 0-.68.788-.94 1.47-.94.444-.011.883.09 1.272.293-.098.795-.802 1.398-1.646 1.409l-.009-.014zm7.865-4.621l-1.59 3.817h-.048l-1.648-3.817h-1.494l2.472 5.338-1.408 2.969h1.444L95 18.484h-1.542zm-12.49 5.635h1.386v-8.81h-1.386v8.81z"/>
        <path fill="url(#a)" d="M.367.325a1.61 1.61 0 0 0-.364 1.108v17.59a1.61 1.61 0 0 0 .36 1.117l.057.057 9.648-9.854v-.226L.425.259.367.325z" transform="translate(10 9)"/>
        <path fill="url(#b)" d="M13.28 13.628l-3.212-3.285v-.226l3.215-3.286.071.043 3.81 2.211c1.087.63 1.087 1.664 0 2.297l-3.81 2.206-.073.04z" transform="translate(10 9)"/>
        <path fill="url(#c)" d="M13.354 13.588l-3.286-3.36L.367 20.14c.36.388.952.435 1.617.047l11.37-6.6" transform="translate(10 9)"/>
        <path fill="url(#d)" d="M13.354 6.868L1.984.268C1.32-.12.726-.072.367.318l9.7 9.91 3.287-3.36z" transform="translate(10 9)"/>
        <path fill="#000" d="M23.283 22.513l-11.299 6.559c-.63.367-1.196.342-1.553 0l-.06.059.058.056c.362.334.928.359 1.553 0l11.372-6.6-.07-.074z" opacity=".2"/>
        <path fill="#000" d="M10.367 29.022a1.61 1.61 0 0 1-.364-1.106v.115a1.61 1.61 0 0 0 .36 1.118l.06-.059-.056-.068zM27.164 20.26l-3.88 2.253.07.075 3.81-2.213c.544-.315.814-.73.814-1.147-.044.376-.321.752-.814 1.031z" opacity=".12"/>
        <path fill="#FFF" d="M11.984 9.383l15.18 8.813c.493.286.77.655.814 1.032 0-.415-.27-.832-.814-1.148l-15.18-8.812c-1.093-.624-1.981-.107-1.981 1.165v.118c0-1.274.888-1.798 1.981-1.168z" opacity=".25"/>
        <text fill="#FFF" font-family="OpenSans-Regular, Open Sans" font-size="7">
            <tspan x="32" y="12">скачать в</tspan>
        </text>
    </g>
</svg>
