<?xml version="1.0" encoding="UTF-8"?>
<svg width="10px" height="10px" viewBox="0 0 10 10" version="1.1" xmlns="http://www.w3.org/2000/svg" xmlns:xlink="http://www.w3.org/1999/xlink">
    <!-- Generator: Sketch 53 (72520) - https://sketchapp.com -->
    <title>Combined Shape</title>
    <desc>Created with Sketch.</desc>
    <g id="Page-1" stroke="none" stroke-width="1" fill="none" fill-rule="evenodd">
        <g id="Тикетная-(Меню-(пополнение-баланса))" transform="translate(-333.000000, -200.000000)" fill="#6D6D72">
            <g id="Group-8-Copy" transform="translate(16.000000, 184.000000)">
                <g id="Combined-Shape-2" transform="translate(317.000000, 16.000000)">
                    <path d="M4.74264069,3.32842712 L7.9246212,0.146446609 C8.11988335,-0.0488155365 8.43646584,-0.0488155365 8.63172798,0.146446609 L9.33883476,0.853553391 C9.53409691,1.04881554 9.53409691,1.36539803 9.33883476,1.56066017 L6.15685425,4.74264069 L9.33883476,7.9246212 C9.53409691,8.11988335 9.53409691,8.43646584 9.33883476,8.63172798 L8.63172798,9.33883476 C8.43646584,9.53409691 8.11988335,9.53409691 7.9246212,9.33883476 L4.74264069,6.15685425 L1.56066017,9.33883476 C1.36539803,9.53409691 1.04881554,9.53409691 0.853553391,9.33883476 L0.146446609,8.63172798 C-0.0488155365,8.43646584 -0.0488155365,8.11988335 0.146446609,7.9246212 L3.32842712,4.74264069 L0.146446609,1.56066017 C-0.0488155365,1.36539803 -0.0488155365,1.04881554 0.146446609,0.853553391 L0.853553391,0.146446609 C1.04881554,-0.0488155365 1.36539803,-0.0488155365 1.56066017,0.146446609 L4.74264069,3.32842712 Z" id="Combined-Shape"></path>
                </g>
            </g>
        </g>
    </g>
</svg>