<svg version="1.1" width="8" height="8" xmlns="http://www.w3.org/2000/svg" xmlns:xlink="http://www.w3.org/1999/xlink" x="0px" y="0px"
	 viewBox="0 0 8 8" style="enable-background:new 0 0 8 8;" xml:space="preserve">
<style type="text/css">
	.st0{fill:#6D6D72;}
</style>
	<g transform="translate(-894.000000, -136.000000)">
		<g  transform="translate(360.000000, 120.000000)">
			<g transform="translate(534.000000, 16.000000)">
				<path class="st0" d="M4,2.8l2.7-2.7C6.8,0,7.1,0,7.3,0.1l0.6,0.6C8,0.9,8,1.2,7.9,1.3L5.2,4l2.7,2.7
					C8,6.8,8,7.1,7.9,7.3L7.3,7.9C7.1,8,6.8,8,6.7,7.9L4,5.2L1.3,7.9C1.2,8,0.9,8,0.7,7.9L0.1,7.3C0,7.1,0,6.8,0.1,6.7L2.8,4
					L0.1,1.3C0,1.2,0,0.9,0.1,0.7l0.6-0.6C0.9,0,1.2,0,1.3,0.1L4,2.8z"/>
			</g>
		</g>
	</g>
</svg>
