<svg width="15px" height="13px" viewBox="0 0 15 13" version="1.1" xmlns="http://www.w3.org/2000/svg" xmlns:xlink="http://www.w3.org/1999/xlink">
    <title>Group 20</title>
    <desc>Created with Sketch.</desc>
    <g stroke="none" stroke-width="1" fill="none" fill-rule="evenodd">
        <g transform="translate(-670.000000, -616.000000)">
            <g transform="translate(360.000000, 120.000000)">
                <g transform="translate(135.000000, 488.000000)">
                    <g transform="translate(175.000000, 5.000000)">
                        <g transform="translate(0.000000, 3.000000)">
                            <g>
                                <path d="M6.36468656e-12,3 L14.1666667,3 C14.626904,3 15,3.40701386 15,3.90909091 L15,12.0909091 C15,12.5929861 14.626904,13 14.1666667,13 L0.833333333,13 C0.373096042,13 6.36468656e-12,12.5929861 6.36468656e-12,12.0909091 L6.36468656e-12,3 Z M8.21812286,2 L9.07718345e-13,2 L9.07718345e-13,0.666666667 C9.07718345e-13,0.298476833 0.399146224,0 0.891518044,0 L5.15270119,3.10744023e-12 C5.40069636,3.25902268e-12 5.63748462,0.077244923 5.8061794,0.213177264 L7.89138376,1.89341137 C7.97573114,1.96137754 8.09412527,2 8.21812286,2 Z" id="Shape" fill="#186CA6"></path>
                                <polygon id="Shape" fill="#FFFFFF" fill-rule="nonzero" points="10.2817083 5 6.5881472 9.43234286 4.72118848 7.52450237 4 8.48171819 6.5881472 11 11 5.84432846"></polygon>
                            </g>
                        </g>
                    </g>
                </g>
            </g>
        </g>
    </g>
</svg>
