<?xml version="1.0" encoding="UTF-8"?>
<svg width="110px" height="36px" viewBox="0 0 110 36" version="1.1" xmlns="http://www.w3.org/2000/svg" xmlns:xlink="http://www.w3.org/1999/xlink">
    <!-- Generator: Sketch 53.1 (72631) - https://sketchapp.com -->
    <title>Group 24</title>
    <desc>Created with Sketch.</desc>
    <defs>
        <linearGradient x1="60.5858644%" y1="4.96929725%" x2="27.5021978%" y2="71.9012963%" id="linearGradient-1">
            <stop stop-color="#00A0FF" offset="0%"></stop>
            <stop stop-color="#00A1FF" offset="1%"></stop>
            <stop stop-color="#00BEFF" offset="26%"></stop>
            <stop stop-color="#00D2FF" offset="51%"></stop>
            <stop stop-color="#00DFFF" offset="76%"></stop>
            <stop stop-color="#00E3FF" offset="100%"></stop>
        </linearGradient>
        <linearGradient x1="107.586594%" y1="49.9666444%" x2="-130.444538%" y2="49.9666444%" id="linearGradient-2">
            <stop stop-color="#FFE000" offset="0%"></stop>
            <stop stop-color="#FFBD00" offset="41%"></stop>
            <stop stop-color="#FFA500" offset="78%"></stop>
            <stop stop-color="#FF9C00" offset="100%"></stop>
        </linearGradient>
        <linearGradient x1="86.2463694%" y1="30.0565152%" x2="-50.1281394%" y2="139.809076%" id="linearGradient-3">
            <stop stop-color="#FF3A44" offset="0%"></stop>
            <stop stop-color="#C31162" offset="100%"></stop>
        </linearGradient>
        <linearGradient x1="-18.793781%" y1="-14.5939522%" x2="42.0980694%" y2="34.4175629%" id="linearGradient-4">
            <stop stop-color="#32A071" offset="0%"></stop>
            <stop stop-color="#2DA771" offset="7%"></stop>
            <stop stop-color="#15CF74" offset="48%"></stop>
            <stop stop-color="#06E775" offset="80%"></stop>
            <stop stop-color="#00F076" offset="100%"></stop>
        </linearGradient>
    </defs>
    <g id="Page-1" stroke="none" stroke-width="1" fill="none" fill-rule="evenodd">
        <g id="ТС.-Личный-кабинет" transform="translate(-655.000000, -592.000000)">
            <g id="Group-24" transform="translate(655.000000, 592.000000)">
                <rect id="Rectangle" fill="#323232" x="0" y="0" width="110" height="36" rx="4"></rect>
                <path d="M52.1271186,18.3072566 C50.3835741,18.3161214 48.9768467,19.6619791 48.983071,21.31526 C48.9892953,22.9685409 50.4061204,24.3048409 52.1496872,24.3019018 C53.8932541,24.2989627 55.3050597,22.9578945 55.3050847,21.3046031 C55.3179131,20.5031876 54.9866538,19.7312504 54.3873587,19.1660162 C53.7880635,18.6007819 52.9722149,18.290807 52.1271186,18.3072566 L52.1271186,18.3072566 Z M52.1271186,23.1287255 C51.1694915,23.1287255 50.3432203,22.3793889 50.3432203,21.3206746 C50.3432203,20.2619604 51.1694915,19.5126238 52.1271186,19.5126238 C53.0847458,19.5126238 53.9110169,20.2499068 53.9110169,21.3206746 C53.9110169,22.3914425 53.0911017,23.1206897 52.1271186,23.1206897 L52.1271186,23.1287255 Z M45.2076271,18.3072566 C43.4640826,18.3161214 42.0573552,19.6619791 42.0635795,21.31526 C42.0698037,22.9685409 43.4866289,24.3048409 45.2301957,24.3019018 C46.9737626,24.2989627 48.3855682,22.9578945 48.3855932,21.3046031 C48.397775,20.5044219 48.0671887,19.7337679 47.4694193,19.1688428 C46.8716498,18.6039177 46.0578127,18.2930285 45.2139831,18.3072566 L45.2076271,18.3072566 Z M45.2076271,23.1287255 C44.25,23.1287255 43.4237288,22.3793889 43.4237288,21.3206746 C43.4237288,20.2619604 44.25,19.5126238 45.2076271,19.5126238 C46.1652542,19.5126238 46.9915254,20.2499068 46.9915254,21.3206746 C46.9915254,22.3914425 46.1716102,23.1206897 45.2139831,23.1206897 L45.2076271,23.1287255 Z M36.9809322,19.2273536 L36.9809322,20.499016 L40.1885593,20.499016 C40.144751,21.0979645 39.886928,21.6648597 39.4576271,22.1061723 C38.8085293,22.7354456 37.9084597,23.0742037 36.9809322,23.0383229 C35.0104926,23.0383229 33.4131357,21.5236736 33.4131357,19.6552589 C33.4131357,17.7868443 35.0104926,16.2721949 36.9809322,16.2721949 C37.8814264,16.2610225 38.7501718,16.5873514 39.3983051,17.1802382 L40.345339,16.2842486 C39.451532,15.4447831 38.2388175,14.9820623 36.9809322,15.0005325 C34.2754237,15.0005325 32,17.0898357 32,19.6552589 C32,22.2206822 34.2754237,24.3099854 36.9809322,24.3099854 C38.440678,24.3099854 39.5423729,23.8559637 40.404661,23.0041709 C41.2669492,22.152378 41.565678,20.9831718 41.565678,20.0289228 C41.5690839,19.7628147 41.5449571,19.4970313 41.4936441,19.2353893 L36.9809322,19.2273536 Z M70.6504237,20.2137457 C70.3877119,19.5447669 69.5911017,18.3072566 67.9449153,18.3072566 C66.2987288,18.3072566 64.9639831,19.5226685 64.9639831,21.3046031 C64.9454979,22.100596 65.2690748,22.8695133 65.8604032,23.4347702 C66.4517315,24.0000272 67.2599962,24.3130492 68.0995763,24.3019496 C69.1572439,24.3081571 70.147132,23.8090124 70.7330508,22.9740367 L69.6567797,22.2930042 C69.3276758,22.8097044 68.7361517,23.1241116 68.0995763,23.1206897 C67.4411445,23.1436907 66.8343691,22.7839925 66.5677966,22.2126464 L70.7944915,20.5532575 L70.6504237,20.2137457 Z M66.3411017,21.2182184 C66.3104423,20.7775439 66.4681314,20.343715 66.7786197,20.0145329 C67.0891081,19.6853509 67.5262601,19.4885249 67.9915254,19.468427 C68.5423729,19.468427 69.0105932,19.7295899 69.1652542,20.1052627 L66.3411017,21.2182184 Z M62.904661,24.1231535 L64.2923729,24.1231535 L64.2923729,15.3099101 L62.904661,15.3099101 L62.904661,24.1231535 Z M60.6292373,18.9802533 L60.5826271,18.9802533 C60.154724,18.5407009 59.5480522,18.296984 58.9173729,18.3112745 C57.3368644,18.3112745 55.8877119,19.6291426 55.8877119,21.3246925 C55.8877119,23.0202424 57.3368644,24.3099854 58.9173729,24.3099854 C59.5510306,24.3260456 60.1600565,24.0769747 60.5826271,23.6289529 L60.6292373,23.6289529 L60.6292373,24.0588672 C60.6292373,25.205975 59.9830508,25.8187034 58.934322,25.8187034 C58.2245355,25.80299 57.5954834,25.3812436 57.3432203,24.7519534 L56.1334746,25.2280734 C56.5989605,26.3048048 57.7071061,27.0058469 58.934322,26.9999632 C60.5635593,26.9999632 61.940678,26.0919199 61.940678,23.8780621 L61.940678,18.4880617 L60.6228814,18.4880617 L60.6292373,18.9802533 Z M59.0381356,23.1247076 C58.0805085,23.1247076 57.2775424,22.3633173 57.2775424,21.3166568 C57.2775424,20.2699962 58.0805085,19.4885165 59.0381356,19.4885165 C59.9957627,19.4885165 60.7330508,20.2599515 60.7330508,21.3166568 C60.7330508,22.373362 59.9830508,23.1206897 59.0381356,23.1206897 L59.0381356,23.1247076 Z M77.154661,15.3099101 L73.8326271,15.3099101 L73.8326271,24.1191356 L75.220339,24.1191356 L75.220339,20.7822773 L77.154661,20.7822773 C78.6927966,20.7822773 80.2033898,19.727581 80.2033898,18.0460937 C80.2033898,16.3646064 78.6927966,15.3099101 77.154661,15.3099101 Z M77.190678,19.5487848 L75.220339,19.5487848 L75.220339,16.5353667 L77.190678,16.5353667 C77.7860666,16.4941096 78.3558209,16.7719239 78.666791,17.2551252 C78.9777611,17.7383264 78.9777611,18.3458252 78.666791,18.8290264 C78.3558209,19.3122276 77.7860666,19.590042 77.190678,19.5487848 L77.190678,19.5487848 Z M85.7605932,18.2831492 C84.7563559,18.2831492 83.7161017,18.7030188 83.2860169,19.6311516 L84.5169492,20.1193253 C84.7817797,19.6311516 85.2711864,19.4724449 85.7881356,19.4724449 C86.5063559,19.4724449 87.2351695,19.874234 87.2478814,20.6054901 L87.2478814,20.6979016 C86.8025319,20.4728658 86.3054839,20.3555554 85.8008475,20.3563809 C84.4745763,20.3563809 83.1228814,21.0474581 83.1228814,22.3412189 C83.1228814,23.5184609 84.2118644,24.2778423 85.4300847,24.2778423 C86.140887,24.3180195 86.8185381,23.9886574 87.1991525,23.4180136 L87.2478814,23.4180136 L87.2478814,24.0970372 L88.5847458,24.0970372 L88.5847458,20.7280358 C88.5805085,19.1630673 87.3495763,18.291185 85.7605932,18.291185 L85.7605932,18.2831492 Z M85.5932203,23.1046181 C85.1398305,23.1046181 84.5063559,22.889661 84.5063559,22.3572905 C84.5063559,21.676258 85.2944915,21.417104 85.9766949,21.417104 C86.4204234,21.405658 86.8593089,21.5069239 87.2478814,21.7104101 C87.1500481,22.5052541 86.4455552,23.1079299 85.6016949,23.1186808 L85.5932203,23.1046181 Z M93.4576271,18.4840438 L91.8686441,22.30104 L91.8199153,22.30104 L90.1716102,18.4840438 L88.6779661,18.4840438 L91.1504237,23.8218117 L89.7415254,26.7910329 L91.1864407,26.7910329 L95,18.4840438 L93.4576271,18.4840438 Z M80.9682203,24.1191356 L82.3538136,24.1191356 L82.3538136,15.3099101 L80.9682203,15.3099101 L80.9682203,24.1191356 Z" id="Shape" fill="#FFFFFF" fill-rule="nonzero"></path>
                <g id="Group-17" transform="translate(10.000000, 9.000000)">
                    <path d="M0.366908069,0.324503268 C0.111928554,0.633263149 -0.0182133549,1.02975784 0.00301001766,1.43316724 L0.00301001766,19.0221551 C-0.0217462834,19.4280289 0.106924345,19.8281271 0.362470288,20.1398879 L0.420161442,20.196568 L10.0678976,10.3432887 L10.0678976,10.116568 L0.424599223,0.258754281 L0.366908069,0.324503268 Z" id="Path" fill="url(#linearGradient-1)"></path>
                    <path d="M13.2808511,13.6284709 L10.0678976,10.3432887 L10.0678976,10.116568 L13.28307,6.83138586 L13.3540745,6.87446278 L17.1639096,9.0849891 C18.2511659,9.7152725 18.2511659,10.7491187 17.1639096,11.3816693 L13.3540745,13.5876612 L13.2808511,13.6284709 Z" id="Path" fill="url(#linearGradient-2)"></path>
                    <path d="M13.3540745,13.5876612 L10.0678976,10.2276612 L0.366908069,20.1398879 C0.726368339,20.5275802 1.31881212,20.5751915 1.98447928,20.1874992 L13.3540745,13.5876612" id="Path" fill="url(#linearGradient-3)"></path>
                    <path d="M13.3540745,6.86766116 L1.98447928,0.267823107 C1.31881212,-0.119869201 0.726368339,-0.0722578651 0.366908069,0.317701649 L10.0678976,10.2276612 L13.3540745,6.86766116 Z" id="Path" fill="url(#linearGradient-4)"></path>
                    <path d="M13.28307,13.5128433 L1.98447928,20.0718717 C1.35431437,20.4391591 0.788497274,20.4142199 0.431255895,20.0718717 L0.431255895,20.0718717 L0.37134585,20.1308191 L0.37134585,20.1308191 L0.429037004,20.1874992 L0.429037004,20.1874992 C0.790716165,20.5207786 1.35653326,20.5457178 1.98226039,20.1874992 L13.3540745,13.5876612 L13.28307,13.5128433 Z" id="Path" fill="#000000" opacity="0.2"></path>
                    <path d="M0.366908069,20.0219931 C0.112465932,19.7138148 -0.0176410539,19.3182371 0.00301001766,18.9155964 L0.00301001766,19.0312239 C-0.0217462834,19.4370978 0.106924345,19.8371959 0.362470288,20.1489567 L0.422380333,20.0900093 L0.366908069,20.0219931 Z" id="Path" fill="#000000" opacity="0.12"></path>
                    <path d="M17.1639096,11.2592401 L13.28307,13.5128433 L13.3540745,13.5876612 L17.1639096,11.3748676 C17.7075378,11.0597259 17.9782424,10.6448272 17.9782424,10.2276612 L17.9782424,10.2276612 C17.9338646,10.6040174 17.6565033,10.9803737 17.1639096,11.2592401 Z" id="Path" fill="#000000" opacity="0.12"></path>
                    <path d="M1.98447928,0.383450637 L17.1639096,9.19608222 C17.6565033,9.48175023 17.9338646,9.85130489 17.9782424,10.2276612 L17.9782424,10.2276612 C17.9782424,9.81276238 17.7075378,9.39559639 17.1639096,9.08045469 L1.98447928,0.267823107 C0.89056624,-0.355658675 0.00301001766,0.161264402 0.00301001766,1.43316724 L0.00301001766,1.55106197 C0.00301001766,0.276891932 0.89056624,-0.246832764 1.98447928,0.383450637 Z" id="Path" fill="#FFFFFF" opacity="0.25"></path>
                </g>
                <text id="скачать-в" font-family="OpenSans-Regular, Open Sans" font-size="7" font-weight="normal" line-spacing="8" fill="#FFFFFF">
                    <tspan x="32" y="12">скачать в</tspan>
                </text>
            </g>
        </g>
    </g>
</svg>