<?xml version="1.0" encoding="UTF-8"?>
<svg width="12px" height="12px" viewBox="0 0 12 12" version="1.1" xmlns="http://www.w3.org/2000/svg" xmlns:xlink="http://www.w3.org/1999/xlink">
    <!-- Generator: Sketch 53.1 (72631) - https://sketchapp.com -->
    <title>Combined Shape</title>
    <desc>Created with Sketch.</desc>
    <g id="Page-1" stroke="none" stroke-width="1" fill="none" fill-rule="evenodd">
        <g id="ТС.-Шапка,-футер" transform="translate(-1035.000000, -1132.000000)" fill="#8CC63F" fill-rule="nonzero">
            <g id="Group-13" transform="translate(1035.000000, 1129.000000)">
                <g id="foreign-2" transform="translate(0.000000, 3.000000)">
                    <g id="foreign">
                        <path d="M11.4285412,0 C11.7441277,0 11.9999754,0.255848357 12,0.571435587 L12,5.14287117 C12,5.4584584 11.7441522,5.71430676 11.4285657,5.71430676 C11.1129792,5.71430676 10.8571315,5.4584584 10.8571315,5.14287117 L10.8571315,1.95097877 L4.975481,7.83261821 C4.86390977,7.94423881 4.7176444,8 4.57140358,8 C4.42516276,8 4.27892195,7.94421425 4.16737527,7.83264276 C3.94420824,7.60947523 3.94420824,7.24770271 4.16737527,7.02453517 L10.0490012,1.14287117 L6.85711611,1.14287117 C6.54152961,1.14287117 6.28568184,0.887022816 6.28568184,0.571435587 C6.28568184,0.255848357 6.54152961,0 6.85711611,0 L11.4285412,0 Z M9.44441527,5.33332538 C9.75123535,5.33332538 9.99997613,5.58206675 10,5.88888756 L10,11.4444378 C10,11.7512586 9.75125922,12 9.44443914,12 L0.55556086,12 C0.24874078,12 0,11.7512586 0,11.4444617 L0,2.55556219 C0,2.24874137 0.24874078,2 0.55556086,2 L6.11109785,2 C6.41791793,2 6.66665871,2.2487175 6.66665871,2.55553832 C6.66665871,2.86235913 6.41791793,3.1111005 6.11109785,3.1111005 L1.11109785,3.1111005 L1.11109785,10.8888995 L8.88885441,10.8888995 L8.88885441,5.88888756 C8.88885441,5.58206675 9.13759519,5.33332538 9.44441527,5.33332538 Z" id="Combined-Shape"></path>
                    </g>
                </g>
            </g>
        </g>
    </g>
</svg>