<svg width="13px" height="13px" viewBox="0 0 13 13" version="1.1" xmlns="http://www.w3.org/2000/svg" xmlns:xlink="http://www.w3.org/1999/xlink">
    <g id="Page-1" stroke="none" stroke-width="1" fill="none" fill-rule="evenodd">
        <g transform="translate(-968.000000, -616.000000)" fill="#186CA6">
            <g id="Group-20" transform="translate(968.000000, 616.000000)">
                <path class="upload-ray1" d="M6.5,9.55360624 C6.21310071,9.55360624 5.98050682,9.78912122 5.98050682,10.0796804 L5.98050682,12.4739258 C5.98050682,12.764485 6.21310071,13 6.5,13 C6.78692441,13 7.01949318,12.764485 7.01949318,12.4739258 L7.01949318,10.0796804 C7.01949318,9.78914665 6.78692441,9.55360624 6.5,9.55360624 Z" id="Path"></path>
                <path class="upload-ray2" d="M4.33180788,8.66818735 C4.12707448,8.46343073 3.79507984,8.46343073 3.59034644,8.66818735 L1.90210708,10.3564091 C1.69734832,10.5611657 1.69734832,10.8931316 1.90210708,11.0978882 C2.00447378,11.2002792 2.13868114,11.251462 2.27286315,11.251462 C2.40704516,11.251462 2.54122717,11.2002792 2.64359387,11.0978882 L4.33183323,9.40966642 C4.53656664,9.20490979 4.53656664,8.87294397 4.33180788,8.66818735 Z" id="Combined-Shape"></path>
                <path class="upload-ray3" d="M2.92031959,5.98050682 L0.526074173,5.98050682 C0.235540414,5.98050682 -3.24806848e-12,6.21310071 -3.24806848e-12,6.5 C-3.24806848e-12,6.78692441 0.235540414,7.01949318 0.526074173,7.01949318 L2.92031959,7.01949318 C3.21085335,7.01949318 3.44639376,6.78692441 3.44639376,6.5 C3.4464192,6.21310071 3.21085335,5.98050682 2.92031959,5.98050682 Z" id="Combined-Shape"></path>
                <path class="upload-ray4" d="M4.33180788,3.59034431 L2.64356852,1.9021069 C2.43883512,1.69734838 2.10684048,1.69734838 1.90210708,1.9021069 C1.69734832,2.10684007 1.69734832,2.43880897 1.90210708,2.64356749 L3.59034644,4.33180489 C3.69271314,4.43417147 3.8269205,4.48538012 3.96110251,4.48538012 C4.09528452,4.48538012 4.22949188,4.43419683 4.33183323,4.33180489 C4.53656664,4.12707172 4.53656664,3.79510282 4.33180788,3.59034431 Z" id="Combined-Shape"></path>
                <path class="upload-ray5" d="M11.0978898,8.66818735 C10.8931563,8.46343073 10.5611617,8.46343073 10.3564283,8.66818735 L8.66818895,10.3564091 C8.46343019,10.5611657 8.46343019,10.8931316 8.66818895,11.0978882 C8.77055565,11.2002792 8.90476301,11.251462 9.03894502,11.251462 C9.17312703,11.251462 9.30730904,11.2002792 9.40967574,11.0978882 L11.0979151,9.40966642 C11.3026485,9.20490979 11.3026485,8.87294397 11.0978898,8.66818735 Z" id="Path" transform="translate(9.883041, 9.883041) scale(-1, 1) translate(-9.883041, -9.883041) "></path>
                <path class="upload-ray6" d="M12.4739258,5.98050682 L10.0796804,5.98050682 C9.78914665,5.98050682 9.55360624,6.21310071 9.55360624,6.5 C9.55360624,6.78692441 9.78914665,7.01949318 10.0796804,7.01949318 L12.4739258,7.01949318 C12.7644596,7.01949318 13,6.78692441 13,6.5 C13.0000254,6.21310071 12.7644596,5.98050682 12.4739258,5.98050682 Z" id="Combined-Shape" transform="translate(11.276803, 6.500000) scale(-1, 1) translate(-11.276803, -6.500000) "></path>
                <path class="upload-ray7" d="M11.0978898,3.59034431 L9.40965039,1.9021069 C9.20491699,1.69734838 8.87292235,1.69734838 8.66818895,1.9021069 C8.46343019,2.10684007 8.46343019,2.43880897 8.66818895,2.64356749 L10.3564283,4.33180489 C10.458795,4.43417147 10.5930024,4.48538012 10.7271844,4.48538012 C10.8613664,4.48538012 10.9955738,4.43419683 11.0979151,4.33180489 C11.3026485,4.12707172 11.3026485,3.79510282 11.0978898,3.59034431 Z" id="Combined-Shape" transform="translate(9.883041, 3.116959) scale(-1, 1) translate(-9.883041, -3.116959) "></path>
                <path class="upload-ray8" d="M6.5,3.89466237e-13 C6.21310071,3.89466237e-13 5.98050682,0.235540414 5.98050682,0.526074173 L5.98050682,2.92031959 C5.98050682,3.21085335 6.21310071,3.44639376 6.5,3.44639376 C6.78692441,3.44639376 7.01949318,3.21085335 7.01949318,2.92031959 L7.01949318,0.526074173 C7.01949318,0.235540414 6.78692441,3.89466237e-13 6.5,3.89466237e-13 Z" id="Combined-Shape"></path>
            </g>
        </g>
    </g>
</svg>
