<?xml version="1.0" encoding="utf-8"?>
<!-- Generator: Adobe Illustrator 21.0.0, SVG Export Plug-In . SVG Version: 6.00 Build 0)  -->
<svg version="1.1" id="Слой_1" xmlns="http://www.w3.org/2000/svg" xmlns:xlink="http://www.w3.org/1999/xlink" x="0px" y="0px"
	 viewBox="0 0 106 25.6" style="enable-background:new 0 0 106 25.6;" xml:space="preserve">
<style type="text/css">
	.st0{fill:#FFFFFF;}
</style>
<path class="st0" d="M6.8,12.5c0-1.3-0.2-2.2-0.4-2.7C6,9.2,5.5,8.9,4.6,8.9c-0.3,0-0.7,0-1,0C3.2,9,2.9,9.1,2.8,9.1v9.7H0V7.2
	C0.6,7,1.2,6.9,2.1,6.8C3,6.6,3.9,6.6,4.8,6.6c0.9,0,1.5,0.1,2,0.3s0.9,0.5,1.3,0.9c0.2-0.1,0.4-0.3,0.7-0.4C9.2,7.2,9.4,7.1,9.8,7
	c0.3-0.1,0.7-0.2,1-0.3c0.3-0.1,0.7-0.1,1.1-0.1c0.9,0,1.7,0.1,2.3,0.4c0.6,0.3,1.1,0.7,1.4,1.1c0.3,0.5,0.6,1.1,0.7,1.7
	c0.1,0.7,0.2,1.4,0.2,2.2v6.8h-2.8v-6.3c0-1.3-0.2-2.2-0.4-2.7c-0.3-0.6-0.9-0.9-1.8-0.9c-0.4,0-0.9,0-1.3,0.2
	C9.9,9.2,9.5,9.4,9.4,9.5c0.1,0.4,0.2,0.8,0.3,1.2c0,0.4,0,0.9,0,1.4v6.6H6.9v-6.3H6.8z M17.1,12.9c0-1.1,0.2-2,0.4-2.8
	c0.3-0.8,0.7-1.4,1.3-2c0.5-0.6,1.1-0.9,1.8-1.1c0.7-0.3,1.4-0.4,2-0.4c1.7,0,2.9,0.5,3.9,1.5c0.9,1,1.4,2.6,1.4,4.6v0.5
	c0,0.2,0,0.4,0,0.5h-8c0,0.9,0.4,1.7,1,2.2c0.6,0.6,1.5,0.8,2.6,0.8c0.7,0,1.3,0,1.8-0.2c0.6-0.1,1-0.3,1.3-0.4l0.4,2.3
	c-0.2,0-0.4,0.2-0.6,0.2c-0.3,0.1-0.6,0.2-0.9,0.2c-0.3,0-0.7,0.1-1.1,0.2s-0.8,0-1.2,0c-1.1,0-2-0.2-2.8-0.4
	c-0.8-0.3-1.4-0.8-2-1.3s-0.9-1.2-1.1-2C17.2,14.6,17.1,13.8,17.1,12.9z M25.1,11.6c0-0.4,0-0.7-0.2-1.1c-0.1-0.3-0.3-0.7-0.4-0.9
	c-0.2-0.3-0.4-0.4-0.8-0.6c-0.3-0.2-0.7-0.2-1.1-0.2c-0.4,0-0.8,0-1.1,0.2c-0.3,0.2-0.6,0.4-0.9,0.6c-0.2,0.3-0.4,0.6-0.5,0.9
	c-0.1,0.3-0.2,0.7-0.3,1.1L25.1,11.6L25.1,11.6L25.1,11.6z M38.9,17.6c0,1.9-0.5,3.3-1.4,4.2c-1,0.9-2.4,1.3-4.4,1.3
	c-0.7,0-1.4,0-2.2-0.2c-0.7-0.1-1.3-0.3-1.9-0.5l0.5-2.4c0.5,0.2,1,0.3,1.6,0.5c0.6,0.1,1.3,0.2,2,0.2c1.1,0,1.9-0.2,2.4-0.7
	c0.5-0.5,0.7-1.1,0.7-2v-0.4c-0.3,0.2-0.6,0.3-1.1,0.4c-0.4,0.1-0.9,0.2-1.5,0.2c-0.8,0-1.4-0.1-2.1-0.4c-0.6-0.2-1.1-0.6-1.6-1.1
	c-0.4-0.5-0.8-1.1-1.1-1.8s-0.4-1.5-0.4-2.4s0.1-1.7,0.4-2.4c0.3-0.7,0.7-1.4,1.1-1.9C30.4,7.8,31,7.3,31.8,7
	c0.7-0.3,1.5-0.4,2.5-0.4c0.9,0,1.8,0,2.6,0.2c0.9,0.1,1.5,0.3,2,0.4L38.9,17.6L38.9,17.6L38.9,17.6z M31.2,12.5
	c0,1.1,0.3,2,0.8,2.6c0.5,0.6,1.1,0.9,2,0.9c0.4,0,0.9,0,1.3-0.2c0.4-0.1,0.7-0.3,0.9-0.4V9c-0.2,0-0.4-0.1-0.7-0.1
	c-0.3,0-0.7,0-1.1,0c-1,0-1.8,0.3-2.3,1C31.5,10.5,31.2,11.4,31.2,12.5z M44.4,6.5c0.9,0,1.7,0.1,2.3,0.3c0.6,0.2,1.1,0.6,1.5,0.9
	c0.4,0.4,0.7,0.9,0.8,1.5c0.2,0.6,0.2,1.2,0.2,2v7.2c-0.4,0.1-1.1,0.2-2,0.3c-0.9,0.1-1.8,0.2-2.9,0.2c-0.7,0-1.4,0-2-0.2
	c-0.6-0.1-1.1-0.3-1.5-0.7c-0.4-0.3-0.8-0.7-1-1.2c-0.2-0.5-0.3-1.1-0.3-1.8c0-0.7,0.1-1.3,0.4-1.7c0.3-0.5,0.6-0.9,1.1-1.1
	c0.4-0.3,1-0.5,1.6-0.7c0.6-0.1,1.2-0.2,1.9-0.2c0.3,0,0.6,0,0.9,0c0.3,0,0.7,0.1,1.1,0.2v-0.4c0-0.3,0-0.6-0.1-0.9
	c0-0.3-0.2-0.6-0.4-0.8c-0.2-0.2-0.4-0.4-0.8-0.5c-0.3-0.1-0.7-0.2-1.1-0.2c-0.7,0-1.2,0-1.8,0.1c-0.6,0.1-1,0.2-1.3,0.3l-0.3-2.3
	c0.3-0.1,0.9-0.2,1.5-0.4C42.9,6.6,43.6,6.5,44.4,6.5z M44.6,16.8c0.9,0,1.5,0,2-0.1v-3c-0.2,0-0.4-0.1-0.7-0.1c-0.3,0-0.6,0-0.9,0
	c-0.3,0-0.6,0-0.9,0c-0.3,0-0.6,0.1-0.9,0.3c-0.3,0.1-0.4,0.3-0.6,0.5c-0.2,0.2-0.2,0.5-0.2,0.9c0,0.7,0.2,1.1,0.6,1.4
	C43.4,16.7,43.9,16.8,44.6,16.8z"/>
<path class="st0" d="M57.7,12.5c0-1.3-0.2-2.2-0.4-2.7c-0.3-0.6-0.9-0.9-1.8-0.9c-0.3,0-0.7,0-1,0c-0.4,0-0.7,0.1-0.9,0.1v9.7h-2.8
	V7.2c0.6-0.2,1.2-0.3,2.1-0.4c0.9-0.1,1.8-0.2,2.7-0.2c0.9,0,1.5,0.1,2,0.3c0.6,0.2,0.9,0.5,1.3,0.9c0.2-0.1,0.4-0.3,0.7-0.4
	C60,7.2,60.3,7.1,60.6,7c0.3-0.1,0.7-0.2,1-0.3c0.3-0.1,0.7-0.1,1.1-0.1c0.9,0,1.7,0.1,2.3,0.4c0.6,0.3,1.1,0.7,1.4,1.1
	c0.3,0.5,0.6,1.1,0.7,1.7c0.1,0.7,0.2,1.4,0.2,2.2v6.8h-2.8v-6.3c0-1.3-0.2-2.2-0.4-2.7c-0.3-0.6-0.9-0.9-1.8-0.9
	c-0.4,0-0.9,0-1.3,0.2c-0.4,0.2-0.7,0.3-0.9,0.4c0.1,0.4,0.2,0.8,0.3,1.2c0,0.4,0,0.9,0,1.4v6.6h-2.8v-6.3H57.7z M71.7,3.7
	c0,0.5-0.2,0.9-0.5,1.2c-0.3,0.3-0.7,0.4-1.2,0.4c-0.5,0-0.9-0.2-1.2-0.4c-0.3-0.3-0.5-0.7-0.5-1.2c0-0.6,0.2-0.9,0.5-1.3
	C69.1,2.1,69.5,2,70,2c0.4,0,0.9,0.2,1.2,0.4C71.5,2.8,71.7,3.2,71.7,3.7z M68.6,6.8h2.8v12h-2.8V6.8z M79.5,9.2
	c-0.2,0-0.3,0-0.7-0.2c-0.4,0-0.9-0.1-1.4-0.1c-0.3,0-0.6,0-1,0.1c-0.3,0-0.6,0.1-0.7,0.2v9.6h-2.8V7.4c0.6-0.2,1.2-0.4,2-0.6
	c0.8-0.2,1.7-0.3,2.6-0.3c0.2,0,0.4,0,0.7,0c0.2,0,0.5,0,0.7,0.1c0.2,0.1,0.5,0.1,0.7,0.1c0.2,0,0.4,0.1,0.6,0.2L79.5,9.2z"/>
<path class="st0" d="M90.3,5c0-0.4-0.3-0.8-0.7-0.8S88.8,4.6,88.8,5c0,0.4,0.3,0.7,0.8,0.7C89.9,5.7,90.3,5.5,90.3,5z"/>
<path class="st0" d="M93.3,0c-7.1,0-12.8,5.7-12.8,12.8c0,4.3,2.1,8,5.3,10.3l3.4-3.4V6.9c0-0.4-0.1-0.6-0.4-0.7
	c-0.4-0.2-0.7-0.7-0.7-1.1c0-0.7,0.6-1.3,1.3-1.3s1.3,0.6,1.3,1.3c0,0.5-0.3,0.9-0.7,1.1c-0.2,0.1-0.4,0.3-0.4,0.6V20l0,0l-3.5,3.5
	c2,1.3,4.4,2,6.9,2c7.1,0,12.8-5.7,12.8-12.8C106.1,5.7,100.4,0,93.3,0z M88.6,8v10.5H88V8H88.6z M91.1,18.6h-0.6V8.1h0.6V18.6z
	 M98.8,18.6c-0.5,0.2-1,0.2-1.6,0.2c-0.7,0-1.3-0.1-1.8-0.3c-0.4-0.2-0.9-0.4-1.1-0.9c-0.3-0.4-0.5-0.9-0.6-1.3
	c-0.1-0.6-0.2-1.1-0.2-1.8V5.2l1.9-0.3v3.3h4v1.6h-4v4.9c0,0.6,0,0.9,0.1,1.3c0,0.3,0.2,0.6,0.4,0.9c0.2,0.2,0.4,0.3,0.6,0.4
	c0.2,0,0.6,0.1,0.9,0.1c0.6,0,1,0,1.4-0.2c0.3-0.1,0.6-0.2,0.7-0.3l0.4,1.5C99.7,18.4,99.3,18.4,98.8,18.6z"/>
</svg>
