<svg width="16" height="16" viewBox="0 0 16 16" version="1.1" xmlns="http://www.w3.org/2000/svg" xmlns:xlink="http://www.w3.org/1999/xlink">
<g id="Canvas" fill="none">
<g id="pause">
<path id="&#208;&#159;&#209;&#128;&#209;&#143;&#208;&#188;&#208;&#190;&#209;&#131;&#208;&#179;&#208;&#190;&#208;&#187;&#209;&#140;&#208;&#189;&#208;&#184;&#208;&#186; 2 &#208;&#186;&#208;&#190;&#208;&#191;&#208;&#184;&#209;&#143;" fill-rule="evenodd" clip-rule="evenodd" d="M 8 0C 9.58225 0 11.129 0.469206 12.4446 1.34826C 13.7602 2.22731 14.7855 3.47674 15.391 4.93855C 15.9965 6.40036 16.155 8.00885 15.8463 9.5607C 15.5376 11.1125 14.7757 12.538 13.6568 13.6568C 12.538 14.7757 11.1125 15.5376 9.5607 15.8463C 8.00885 16.155 6.40036 15.9965 4.93855 15.391C 3.47674 14.7855 2.22731 13.7602 1.34826 12.4446C 0.469206 11.129 0 9.58225 0 8C 0 5.87827 0.842858 3.84344 2.34315 2.34315C 3.84344 0.842858 5.87827 0 8 0L 8 0ZM 5.01412 4.91203L 7.46214 4.93412L 7.35757 11.088L 4.90828 11.0659L 5.01412 4.91203ZM 8.6277 4.92308L 11.0769 4.92308L 11.0769 11.0769L 8.6277 11.0769L 8.6277 4.92308Z" fill="#27bbea"/>
</g>
</g>
</svg>
