<svg xmlns="http://www.w3.org/2000/svg" width="16" height="16" viewBox="0 0 16 16">
  <metadata><?xpacket begin="﻿" id="W5M0MpCehiHzreSzNTczkc9d"?>
<x:xmpmeta xmlns:x="adobe:ns:meta/" x:xmptk="Adobe XMP Core 5.6-c138 79.159824, 2016/09/14-01:09:01        ">
   <rdf:RDF xmlns:rdf="http://www.w3.org/1999/02/22-rdf-syntax-ns#">
      <rdf:Description rdf:about=""/>
   </rdf:RDF>
</x:xmpmeta>
                                                                                                    
                                                                                                    
                                                                                                    
                                                                                                    
                                                                                                    
                                                                                                    
                                                                                                    
                                                                                                    
                                                                                                    
                                                                                                    
                                                                                                    
                                                                                                    
                                                                                                    
                                                                                                    
                                                                                                    
                                                                                                    
                                                                                                    
                                                                                                    
                                                                                                    
                                                                                                    
                           
<?xpacket end="w"?></metadata>
<defs>
    <style>
      .cls-1 {
        fill: #c17bfc;
        fill-rule: evenodd;
      }
    </style>
  </defs>
  <path id="_2" data-name="2" class="cls-1" d="M554,445a8,8,0,1,1-8,8A8,8,0,0,1,554,445Zm3.777,11h-1.555a0.2,0.2,0,0,1-.228-0.168v-4.664a0.2,0.2,0,0,1,.228-0.168h1.556a0.2,0.2,0,0,1,.226.168v4.664A0.2,0.2,0,0,1,557.777,456Zm-3,0h-1.555a0.231,0.231,0,0,1-.228-0.235v-6.53a0.231,0.231,0,0,1,.228-0.235h1.556a0.228,0.228,0,0,1,.226.235v6.53A0.231,0.231,0,0,1,554.777,456Zm-3,0h-1.556a0.2,0.2,0,0,1-.227-0.134v-3.732a0.2,0.2,0,0,1,.227-0.134h1.557a0.2,0.2,0,0,1,.226.134v3.732A0.2,0.2,0,0,1,551.777,456Z" transform="translate(-546 -445)"/>
</svg>
